<svg width="118" height="43" viewBox="0 0 118 43" fill="none" xmlns="http://www.w3.org/2000/svg">
<path d="M1.89 33C1.89 33 2.128 32.622 2.604 31.866C3.08 31.11 3.71 30.102 4.494 28.842C5.306 27.582 6.202 26.154 7.182 24.558C8.19 22.962 9.212 21.324 10.248 19.644C11.312 17.964 12.334 16.326 13.314 14.73C14.322 13.134 15.218 11.706 16.002 10.446C16.814 9.186 17.458 8.178 17.934 7.422C18.41 6.666 18.648 6.288 18.648 6.288L19.32 7.968H8.19C7.602 7.968 6.986 7.842 6.342 7.59C5.726 7.31 5.194 6.946 4.746 6.498C4.326 6.022 4.116 5.504 4.116 4.944V0.533997H9.702V1.122C9.702 1.738 9.8 2.06 9.996 2.088C10.192 2.088 10.542 2.088 11.046 2.088H28.224L11.928 27.792L11.592 27.12H28.182V33H1.89ZM34.3005 2.088H55.3845V7.968H40.3905V14.562H53.6625V20.442H40.3905V27.12H55.9725V33H34.3005V2.088ZM71.6392 2.088C73.5712 2.088 75.2932 2.34 76.8052 2.844C78.3172 3.32 79.5772 4.02 80.5852 4.944C81.6212 5.84 82.4052 6.932 82.9372 8.22C83.4692 9.48 83.7352 10.908 83.7352 12.504C83.7352 13.764 83.5392 15.024 83.1472 16.284C82.7832 17.544 82.1672 18.692 81.2992 19.728C80.4592 20.764 79.3392 21.604 77.9392 22.248C76.5392 22.864 74.8032 23.172 72.7312 23.172H68.3632V33H62.2732V2.088H71.6392ZM72.6892 17.292C73.6132 17.292 74.3832 17.138 74.9992 16.83C75.6152 16.522 76.0912 16.13 76.4272 15.654C76.7912 15.178 77.0432 14.688 77.1832 14.184C77.3512 13.652 77.4352 13.162 77.4352 12.714C77.4352 12.378 77.3792 11.958 77.2672 11.454C77.1832 10.922 76.9872 10.39 76.6792 9.858C76.3712 9.326 75.8952 8.878 75.2512 8.514C74.6352 8.15 73.7952 7.968 72.7312 7.968H68.3632V17.292H72.6892ZM78.4012 21.072L86.0452 33H78.9472L71.1352 21.24L78.4012 21.072Z" fill="black"/>
<circle cx="102" cy="18" r="16" fill="black"/>
<path d="M102.064 6.85714L102.064 20.8571" stroke="#BCBCBC" stroke-width="3" stroke-linecap="round" stroke-linejoin="round"/>
<path d="M102.064 11.8571V20.8571" stroke="#E3E3E3" stroke-width="3" stroke-linecap="round" stroke-linejoin="round"/>
</svg>

